<?xml version="1.0" standalone="no"?>
<!DOCTYPE svg PUBLIC "-//W3C//DTD SVG 20010904//EN"
 "http://www.w3.org/TR/2001/REC-SVG-20010904/DTD/svg10.dtd">
<svg version="1.0" xmlns="http://www.w3.org/2000/svg"
 width="598.000000pt" height="598.000000pt" viewBox="0 0 598.000000 598.000000"
 preserveAspectRatio="xMidYMid meet">
<metadata>
Created by potrace 1.11, written by Peter Selinger 2001-2013
</metadata>
<g transform="translate(0.000000,598.000000) scale(0.100000,-0.100000)"
fill="#000000" stroke="none">
<path d="M3509 5658 c0 -25 0 -563 1 -673 0 -13 19 -35 53 -60 28 -22 63 -50
77 -62 14 -13 30 -23 37 -23 12 0 91 29 148 54 17 8 64 26 106 42 l76 27 1
364 0 363 -249 0 -249 0 -1 -32z"/>
<path d="M3140 4791 c-107 -37 -352 -120 -545 -185 -192 -65 -375 -127 -406
-138 l-56 -20 75 -191 c41 -106 93 -240 116 -299 l41 -107 47 -1 c30 0 50 5
55 14 4 8 46 56 93 107 47 51 94 102 105 115 42 46 161 179 182 202 12 13 49
54 83 92 34 38 71 80 83 93 12 13 56 61 97 107 41 46 89 98 105 115 28 30 44
48 118 133 17 18 23 32 16 31 -8 0 -102 -31 -209 -68z"/>
<path d="M3780 4779 c-119 -42 -110 -31 -110 -138 l0 -94 77 -91 c42 -50 82
-98 90 -106 11 -12 13 24 13 218 0 128 -3 232 -7 231 -5 0 -33 -9 -63 -20z"/>
<path d="M1156 4691 c8 -8 149 -124 249 -206 22 -18 108 -89 190 -157 83 -68
186 -152 230 -188 44 -35 82 -67 85 -70 3 -3 37 -31 75 -62 39 -31 97 -79 130
-107 53 -45 65 -51 107 -51 55 0 56 -22 -7 203 -26 92 -48 173 -49 180 -2 6
-5 19 -8 27 -8 21 -36 119 -44 152 -3 15 -11 31 -17 36 -11 8 -191 58 -247 68
-14 3 -32 7 -40 11 -8 3 -22 7 -30 8 -15 2 -365 93 -539 139 -52 14 -90 22
-85 17z"/>
<path d="M3330 4639 c-81 -91 -81 -88 -19 -161 30 -34 59 -67 65 -73 5 -5 39
-44 75 -85 35 -41 66 -77 69 -80 3 -3 34 -39 70 -80 36 -41 70 -80 75 -86 6
-6 33 -37 60 -69 28 -32 67 -77 87 -99 21 -23 38 -44 38 -48 0 -9 270 -11 270
-2 0 5 -71 91 -120 145 -8 9 -37 42 -65 74 -27 32 -54 63 -60 69 -5 7 -35 41
-65 76 -30 36 -57 67 -60 70 -3 3 -64 73 -135 155 -71 83 -134 155 -140 161
-6 6 -26 30 -45 53 -19 22 -37 41 -40 41 -3 0 -30 -28 -60 -61z"/>
<path d="M1024 4591 c-21 -26 -70 -91 -109 -144 l-70 -96 -104 5 c-57 3 -113
7 -125 9 -23 5 0 -18 175 -170 57 -49 120 -104 139 -121 19 -17 85 -75 145
-128 l110 -96 145 0 c117 1 142 3 129 13 -15 11 -103 87 -168 145 -14 13 -46
40 -71 60 -24 20 -54 46 -65 57 -11 11 -49 44 -85 74 -36 30 -69 58 -74 62 -5
4 37 66 92 138 l101 130 -27 27 c-15 14 -43 39 -63 55 l-36 28 -39 -48z"/>
<path d="M4987 4344 c-2 -2 -50 -8 -147 -19 -32 -3 -115 -14 -160 -21 -19 -2
-55 -7 -80 -9 -25 -3 -58 -7 -75 -9 -16 -2 -57 -7 -90 -11 -33 -3 -71 -8 -85
-11 -14 -3 -43 -6 -65 -8 -38 -4 -109 -13 -165 -21 -38 -6 -143 -18 -157 -18
-20 0 -16 -8 25 -56 20 -24 87 -103 147 -175 l110 -131 115 -3 115 -3 65 58
c36 32 94 83 129 113 35 30 76 66 91 80 16 14 54 48 86 75 31 28 78 69 103 92
25 22 57 50 71 62 l25 20 -28 -2 c-15 -1 -29 -2 -30 -3z"/>
<path d="M517 4261 c-9 -15 -27 -38 -40 -52 -13 -13 -79 -94 -148 -179 -68
-85 -127 -156 -131 -158 -5 -2 -8 -8 -8 -13 0 -5 46 -9 101 -9 113 0 94 -10
182 94 23 27 56 65 73 85 18 20 52 61 77 91 l46 55 -42 38 c-23 20 -54 46 -68
57 l-25 19 -17 -28z"/>
<path d="M3079 4266 c-1 -33 -1 -138 0 -163 1 -22 5 -23 81 -23 l80 0 -1 48
c-1 26 0 52 1 57 5 22 0 75 -7 74 -5 -1 -10 -1 -13 1 -5 2 -21 5 -92 18 -45 9
-48 8 -49 -12z"/>
<path d="M5038 4232 l-47 -47 61 -55 c90 -82 184 -169 247 -228 l56 -52 87 1
c49 1 88 4 88 8 0 3 -46 50 -102 103 -57 53 -155 147 -218 207 -63 61 -117
111 -120 111 -3 0 -26 -22 -52 -48z"/>
<path d="M3290 4160 l0 -92 25 4 c13 3 22 1 19 -4 -13 -21 -65 -31 -156 -29
-108 3 -100 8 -100 -66 0 -18 -4 -33 -8 -33 -10 0 -170 -72 -255 -115 l-60
-30 0 -170 0 -170 -132 0 c-73 0 -135 -4 -140 -8 -4 -5 -8 -124 -8 -265 l0
-257 138 0 c75 1 138 -2 138 -5 1 -3 3 -297 4 -655 2 -357 5 -663 8 -680 3
-16 9 -48 12 -70 14 -81 85 -241 115 -260 21 -13 8 -24 -27 -24 -67 1 -70 4
-68 62 2 75 -2 84 -56 111 -42 21 -54 23 -88 14 -22 -6 -48 -18 -58 -27 -10
-10 -29 -16 -42 -14 -40 6 -98 -16 -130 -49 -26 -26 -30 -37 -25 -63 5 -29 4
-31 -23 -30 -15 0 -38 6 -51 13 -13 8 -33 15 -44 17 -33 7 -33 12 12 62 65 75
136 215 156 308 2 11 6 31 9 45 19 89 27 167 29 280 l1 85 -374 0 -374 0 -4
-115 c-4 -137 -5 -139 -27 -212 -29 -102 -91 -150 -183 -143 -76 5 -108 30
-136 106 -25 67 -28 92 -34 265 l-5 161 553 -1 c305 -1 561 2 569 5 13 6 15
42 14 256 -2 272 -5 321 -29 435 -38 187 -119 341 -231 440 -122 110 -300 183
-496 204 -123 14 -353 9 -434 -10 -12 -2 -37 -7 -55 -10 -67 -10 -195 -60
-261 -100 -119 -74 -187 -148 -263 -288 -14 -27 -22 -48 -18 -48 5 0 3 -4 -2
-8 -9 -6 -29 -57 -41 -104 -1 -5 -3 -10 -4 -13 -3 -6 -3 -5 -15 -60 -4 -22 -9
-44 -10 -50 -14 -60 -26 -146 -32 -225 -13 -180 -6 -556 12 -652 3 -13 7 -43
10 -68 3 -25 7 -52 10 -60 2 -8 6 -26 9 -40 7 -41 36 -149 48 -178 33 -81 72
-162 79 -162 4 0 10 -8 13 -17 3 -10 18 -31 33 -48 14 -16 35 -39 45 -51 l19
-21 -436 1 -435 1 0 -477 0 -478 2990 0 2990 0 0 475 c0 445 -1 475 -17 476
-10 0 -289 1 -621 2 l-602 0 1 611 c0 337 5 638 10 671 13 83 35 146 64 185
30 41 102 90 132 90 12 0 24 3 26 8 6 8 88 15 205 16 l82 1 0 349 0 348 -117
-6 c-207 -10 -336 -56 -445 -160 l-27 -26 -6 48 c-4 26 -8 56 -9 67 -3 20 -10
20 -337 20 l-334 0 -1 -965 c-1 -531 -2 -975 -3 -988 -1 -16 -5 -21 -13 -16
-7 4 -28 10 -48 14 -34 5 -35 7 -36 50 -1 25 -2 53 -3 62 -1 15 -11 16 -83 11
-141 -9 -260 -5 -274 10 -18 17 -23 168 -24 692 l-1 600 191 0 190 0 1 25 c3
93 -1 491 -4 497 -3 5 -85 8 -184 7 -166 -1 -211 5 -198 27 7 11 7 640 0 647
-3 3 -16 0 -30 -6 -41 -19 -45 -15 -44 36 2 60 -2 68 -43 75 -18 3 -45 9 -60
12 l-28 7 0 -92z m-1671 -1226 c73 -29 109 -112 107 -249 l-1 -80 -185 0 -185
0 1 60 c2 107 21 178 65 233 37 48 127 65 198 36z"/>
<path d="M2190 4207 c0 -2 16 -51 36 -108 20 -57 37 -108 38 -114 3 -15 38
-119 43 -128 2 -4 9 -5 14 -1 6 3 6 11 1 17 -5 7 -23 55 -41 107 -17 52 -36
104 -41 115 -4 11 -16 41 -26 68 -14 40 -24 58 -24 44z"/>
<path d="M4887 4063 c-2 -4 -4 -26 -4 -49 0 -40 0 -41 39 -42 l38 -2 0 43 c0
28 -5 44 -12 45 -7 0 -23 4 -34 7 -12 4 -24 3 -27 -2z"/>
<path d="M4983 4009 c-3 -37 -1 -39 27 -39 29 0 33 5 33 45 0 27 -3 30 -31 32
-25 2 -27 -1 -29 -38z"/>
<path d="M4898 3952 c-13 -2 -18 -13 -18 -42 0 -41 12 -50 58 -42 17 3 22 11
22 36 0 48 -15 59 -62 48z"/>
<path d="M4989 3948 c-1 -2 -3 -16 -5 -33 -4 -35 8 -52 37 -50 18 1 22 8 23
43 2 40 0 42 -26 42 -15 0 -29 -1 -29 -2z"/>
</g>
</svg>
